# xmcd
#
# Track frame offsets:
#	150
#	5147
#	19571
#	35096
#	38404
#	54962
#	64375
#	73903
#	90325
#	95905
#	108552
#	111470
#	127393
#	144170
#	154758
#	172540
#	189245
#
# Disc length: 2725 seconds
#
# Revision: 0
# Processed by: cddbd v1.5.2PL0 Copyright (c) Steve Scherf et al.
# Submitted via: EasyCDDAExtractor 8.1.2.3
#
DISCID=e60aa311
DTITLE=Oxmo Puccino - La réconciliation
DYEAR=2007
DGENRE=Rap
TTITLE0=Intro
TTITLE1=Tiroir-Caisse
TTITLE2=Passager Clandestin
TTITLE3=Interlude Barbe
TTITLE4=He Ouais
TTITLE5=Mama Lova (Dear Mama Remix)
TTITLE6=Les Yeux Dans Les Cieux
TTITLE7=Paris By Night Feat Seven
TTITLE8=La Petite Lecon
TTITLE9=Les Jeunes Du Hall
TTITLE10=Interlude
TTITLE11=Sans Pourquoi, Ni Parce Que Feat Sadik Asken
TTITLE12=La Roulette Russe
TTITLE13=Zigane Feat Teddy Blow
TTITLE14=La Chaussette Feat Fefe Typica
TTITLE15=He Ouais (Remix)
TTITLE16=Tiroir Caisse (Remix)
EXTD=
EXTT0=
EXTT1=
EXTT2=
EXTT3=
EXTT4=
EXTT5=
EXTT6=
EXTT7=
EXTT8=
EXTT9=
EXTT10=
EXTT11=
EXTT12=
EXTT13=
EXTT14=
EXTT15=
EXTT16=
PLAYORDER=
